# xmcd
#
# Track frame offsets:
#	150
#	18993
#	31514
#	48561
#	59114
#	75257
#	94795
#	112232
#	124056
#	138702
#	146098
#	160061
#	178973
#	192493
#	209631
#	226001
#	238869
#	252976
#	264554
#
# Disc length: 3662 seconds
#
# Revision: 0
# Processed by: cddbd v1.5.1PL0 Copyright (c) Steve Scherf et al.
# Submitted via: EasyCDDAExtractor 8.0.2.1
#
DISCID=190e4c13
DTITLE=Rosewynde - Distant Ayres
DYEAR=2000
DGENRE=Acid
TTITLE0=Distant Ayres
TTITLE1=How CAn I Keep From Singing
TTITLE2=The Mist Covered Mountains Of Home
TTITLE3=Idir Deighric Gus Breo
TTITLE4=Be Thou My Vision
TTITLE5=Danny Boy
TTITLE6=Dirait-on (Chanson De Roses)
TTITLE7=Syrinx Suite Antique
TTITLE8=Prelude
TTITLE9=Ostinato
TTITLE10=Aria
TTITLE11=Waltz
TTITLE12=Chanson
TTITLE13=Grassy Fields
TTITLE14=Suil A Ghra! (Banish Misfortune)
TTITLE15=Morag Of Dunvegan
TTITLE16=Ladyes' Delight (Haste To The Wedding)
TTITLE17=Theme From The Thornbirds
TTITLE18=Distant Ayres (Reprise)
EXTD=
EXTT0=
EXTT1=
EXTT2=
EXTT3=
EXTT4=
EXTT5=
EXTT6=
EXTT7=
EXTT8=
EXTT9=
EXTT10=
EXTT11=
EXTT12=
EXTT13=
EXTT14=
EXTT15=
EXTT16=
EXTT17=
EXTT18=
PLAYORDER=
